<svg xmlns="http://www.w3.org/2000/svg" viewBox="0 0 466 61">
  <g transform="translate(0,0) scale(1,1)">
    <path id="separator" fill="none" stroke="currentColor" stroke-width="1"
        d="M 424.09,36.91
           C 432.45,37.36 433.55,29.18 401.82,30.55
             382.09,31.09 382.18,33.73 361.36,34.27
             343.00,33.91 333.45,30.27 318.91,27.36
             308.82,25.36 300.00,24.36 295.55,27.36
             295.55,27.36 293.73,32.64 297.64,32.64
             301.18,32.82 301.45,29.55 299.82,27.82
             297.18,24.91 290.18,23.27 283.45,23.36
             283.45,23.36 273.82,24.00 260.64,30.73
             253.45,34.45 238.64,37.82 226.45,31.64
             223.00,29.91 215.64,25.64 223.82,20.82
             228.91,19.09 236.82,15.55 249.45,19.18
             249.45,19.18 258.82,24.18 250.45,28.00
             245.00,30.45 240.64,30.00 234.73,28.18
             231.27,27.27 232.27,25.09 232.27,25.09M 34.91,36.91
           C 26.55,37.36 25.45,29.18 57.18,30.55
             76.91,31.09 76.82,33.73 97.64,34.27
             116.00,33.91 125.55,30.27 140.09,27.36
             150.18,25.36 159.00,24.36 163.45,27.36
             163.45,27.36 165.27,32.64 161.36,32.64
             157.82,32.82 157.55,29.55 159.18,27.82
             161.82,24.91 168.82,23.27 175.55,23.36
             175.55,23.36 185.18,24.00 198.36,30.73
             205.55,34.45 220.36,37.82 232.55,31.64
             236.00,29.91 243.36,25.64 235.18,20.82
             230.09,19.09 222.18,15.55 209.55,19.18
             209.55,19.18 200.18,24.18 208.55,28.00
             214.00,30.45 218.36,30.00 224.27,28.18
             227.73,27.27 226.73,25.09 226.73,25.09" />
  </g>
</svg>
